<svg xmlns="http://www.w3.org/2000/svg" viewBox="0 0 32 32"><path d="M16 0C7.16 0 0 7.164 0 16c0 7.07 4.584 13.066 10.94 15.18.8.15 1.094-.344 1.094-.77 0-.38-.014-1.386-.02-2.72-4.452.966-5.39-2.146-5.39-2.146-.728-1.848-1.78-2.34-1.78-2.34-1.45-.992.112-.972.112-.972 1.606.112 2.45 1.648 2.45 1.648 1.428 2.446 3.746 1.74 4.66 1.33.144-1.034.556-1.74 1.014-2.14-3.554-.4-7.288-1.776-7.288-7.906 0-1.746.62-3.174 1.646-4.294-.18-.404-.72-2.03.14-4.234 0 0 1.34-.43 4.4 1.64 1.28-.356 2.64-.532 4-.54 1.36.008 2.72.184 4 .54 3.04-2.07 4.38-1.64 4.38-1.64.86 2.204.32 3.83.16 4.234 1.02 1.12 1.64 2.548 1.64 4.294 0 6.146-3.74 7.5-7.3 7.894.56.48 1.08 1.46 1.08 2.96 0 2.14-.02 3.86-.02 4.38 0 .42.28.92 1.1.76C27.42 29.06 32 23.06 32 16c0-8.836-7.164-16-16-16z"/><title>GitHub Icon</title></svg>
