<svg xmlns="http://www.w3.org/2000/svg" viewBox="0 0 25 32"><path d="M24.64 9.664c.512 1.312.8 2.784.8 4.416 0 2.176-.544 4.256-1.472 5.824-1.248 1.952-3.008 2.944-5.216 2.944-.864 0-1.664-.224-2.24-.672a3.094 3.094 0 0 1-.96-1.152 4.662 4.662 0 0 1-3.616 1.76c-1.664 0-3.04-.608-3.936-1.856-.864-1.12-1.312-2.688-1.312-4.512s.512-3.52 1.568-4.736c1.056-1.312 2.624-2.016 4.512-2.016 1.12 0 2.144.48 2.88 1.184l.224-.832h2.72l-.544 8.288c-.032.672.032 1.152.288 1.376.096.16.32.256.64.256 2.432 0 3.264-3.936 3.264-5.856 0-2.304-.768-4.224-2.144-5.632-1.6-1.632-3.904-2.432-6.688-2.432-2.688 0-5.056.832-6.848 2.432-2.08 1.888-3.232 4.576-3.232 7.84 0 2.752.992 5.28 2.72 7.072 1.664 1.696 3.904 2.624 6.56 2.624 3.04 0 5.344-.448 7.712-1.504l.48-.224v3.072l-.192.096c-2.208 1.088-4.8 1.6-8.032 1.6-3.456 0-6.4-1.056-8.608-3.104C1.376 23.584 0 20.064 0 16.064c0-3.808 1.28-7.04 3.712-9.408a12.826 12.826 0 0 1 4.256-2.688c1.664-.672 3.488-.992 5.408-.992 3.616 0 6.88 1.184 9.056 3.392a9.202 9.202 0 0 1 2.208 3.296zM12.352 19.808c.96 0 1.728-.448 2.208-1.28.448-.8.576-1.952.576-2.72 0-.992-.224-1.792-.544-2.368-.416-.64-1.056-.896-1.92-.896-.896 0-1.6.384-2.016 1.216-.416.704-.608 1.696-.608 2.656 0 1.024.224 3.392 2.304 3.392z"/><title>Mail Icon</title></svg>
