<svg xmlns="http://www.w3.org/2000/svg" viewBox="0 0 32 32"><path d="M32 6.076c-1.18.52-2.44.874-3.77 1.034a6.598 6.598 0 0 0 2.886-3.632 13.557 13.557 0 0 1-4.17 1.58 6.565 6.565 0 0 0-11.356 4.48c0 .52.06 1.02.17 1.5-5.456-.26-10.294-2.88-13.532-6.84A6.444 6.444 0 0 0 1.34 7.5c0 2.28 1.16 4.286 2.92 5.464a6.556 6.556 0 0 1-2.974-.82v.08a6.57 6.57 0 0 0 5.266 6.44 6.673 6.673 0 0 1-1.73.228c-.42 0-.82-.04-1.22-.116a6.58 6.58 0 0 0 6.14 4.56 13.156 13.156 0 0 1-8.14 2.808c-.52 0-1.04-.03-1.56-.09a18.665 18.665 0 0 0 10.08 2.948c12.08 0 18.68-10 18.68-18.66 0-.28 0-.56-.02-.84 1.28-.92 2.4-2.08 3.28-3.4z"/></svg>