<svg xmlns="http://www.w3.org/2000/svg" viewBox="0 0 32 32"><path d="M24.252 0c-.69 0-.988.434-1.236.88 0 0-9.94 17.632-10.27 18.21.02.032 6.56 12.03 6.56 12.03.226.41.58.88 1.288.88H25.2c.28 0 .5-.104.616-.294.12-.2.12-.46-.01-.714L19.3 19.104v-.03L29.52 1.008c.126-.256.128-.516.008-.714-.12-.19-.336-.294-.614-.294h-4.66zM4.864 6.32c-.28 0-.512.1-.63.288-.12.2-.104.452.026.708l3.12 5.4v.028L2.48 21.4c-.13.252-.124.508 0 .706.114.19.32.314.6.314h4.616c.69 0 1.02-.464 1.26-.89l4.98-8.812-3.172-5.54c-.23-.42-.58-.88-1.284-.88H4.864z"/></svg>